<?xml version="1.0" encoding="UTF-8" standalone="no"?>
<svg
   width="1024"
   height="1024"
   viewBox="0 0 1024 1024"
   version="1.1"
   id="svg69"
   sodipodi:docname="tournament-logo.svg"
   inkscape:version="1.4.2 (ebf0e940d0, 2025-05-08)"
   xmlns:inkscape="http://www.inkscape.org/namespaces/inkscape"
   xmlns:sodipodi="http://sodipodi.sourceforge.net/DTD/sodipodi-0.dtd"
   xmlns="http://www.w3.org/2000/svg"
   xmlns:svg="http://www.w3.org/2000/svg">
  <defs
     id="defs69" />
  <sodipodi:namedview
     id="namedview69"
     pagecolor="#ffffff"
     bordercolor="#000000"
     borderopacity="0.25"
     inkscape:showpageshadow="2"
     inkscape:pageopacity="0.0"
     inkscape:pagecheckerboard="0"
     inkscape:deskcolor="#d1d1d1"
     inkscape:zoom="1.2980666"
     inkscape:cx="763.44309"
     inkscape:cy="446.81836"
     inkscape:window-width="2560"
     inkscape:window-height="1375"
     inkscape:window-x="0"
     inkscape:window-y="0"
     inkscape:window-maximized="1"
     inkscape:current-layer="svg69" />
  <path
     fill="#e2e2e2"
     d="M 0,0 H 1024 V 1024 H 0 Z"
     id="path1"
     sodipodi:nodetypes="ccccc" />
  <path
     d="M220.885 360.21C268.296 355.699 310.837 375.652 344.861 407.171C327.071 397.278 307.769 390.395 287.735 386.798C256.518 381.389 225.168 384.799 198.773 403.375C213.746 421.176 227.71 437.812 231.84 462.126C215.924 466.914 199.632 477.893 183.117 483.147C157.642 491.252 142.739 466.554 131.132 448.266C128.506 444.129 123.117 432.252 117.536 434.477C112.501 440.228 116.798 452.995 118.942 459.421C125.565 479.274 137.023 495.815 151.41 510.797C135.235 522.037 122.661 534.689 116.466 554.043C112.399 566.751 111.451 584.274 117.809 596.464C118.746 598.262 119.668 599.478 121.653 600.053C123.533 599.804 125.442 597.997 125.828 596.272C130.606 574.964 135.219 559.182 149.879 541.572C149.724 571.592 169.072 599.643 199.643 605.651C201.466 606.009 203.682 606.443 205.276 605.333C205.681 602.834 201.094 599.642 199.177 597.837C176.319 576.316 164.431 547.28 180.273 518.152C191.76 498.771 214.948 487.25 234.792 478.182C241.066 523.592 241.925 590.874 199.788 620.063C205.635 628.66 215.543 632.492 225.3 635.23C262.446 645.652 311.315 634.803 344.68 616.538C315.129 643.968 287.489 660.862 245.86 664.901C205.824 668.786 166.248 658.046 135.15 631.871C103.513 605.189 83.906 566.927 80.7261 525.663C76.9347 485.077 89.5388 444.662 115.729 413.426C142.941 381.473 179.18 363.466 220.885 360.21Z"
     id="path2"
     style="fill:#2b2200;fill-opacity:1" />
  <path
     fill="#E2E2E2"
     d="M169.542 432.708C180.065 430.344 190.5 437.005 192.786 447.546C195.071 458.086 188.333 468.471 177.775 470.679C167.328 472.863 157.075 466.21 154.814 455.779C152.552 445.349 159.128 435.047 169.542 432.708Z"
     id="path3" />
  <path
     d="M552.886 563.733C588.377 562.634 628.773 563.311 664.5 563.388C755.635 563.315 846.765 564.58 937.862 567.184C932.791 576.961 928.288 584.47 922.319 593.721C909.83 594.347 893.888 593.938 881.196 593.961C854.968 594.089 828.739 594.02 802.511 593.753L630.75 593.368C502.421 592.763 374.089 593.024 245.763 594.152C252.495 585.25 255.305 577.713 258.559 566.973C356.675 566.599 454.786 565.52 552.886 563.733Z"
     id="path4" />
  <path
     fill="#e2e2e2"
     d="m 779.341,569.623 c 8.122,0.165 17.032,3.118 9.986,12.561 -3.693,2.51 -5.776,2.043 -10.229,2.006 0.329,-4.445 0.216,-10.029 0.243,-14.567 z"
     id="path5" />
  <path
     d="m 781.87,571.741 c 6.237,0.702 8.869,3.344 5.329,9.225 -1.981,0.876 -3.184,1.674 -5.097,0.457 -0.943,-2.276 -0.333,-6.842 -0.232,-9.682 z"
     id="path6" />
  <path
     fill="#E2E2E2"
     d="M629.964 568.649C631.926 569.44 639.471 577.196 641.611 579.308C641.565 575.204 641.393 573.371 642.486 569.455L643.157 569.251C644.891 573.468 644.411 579.894 644.308 584.563C642 583.911 636.562 577.136 632.525 574.562C632.577 578.643 632.758 580.627 631.705 584.533L631.043 584.654C629.361 580.042 629.854 573.648 629.964 568.649Z"
     id="path7" />
  <path
     fill="#E2E2E2"
     d="M556.714 568.73L558.542 569.176C559.981 571.164 559.448 573.226 559.304 575.894L565.956 575.436C565.824 573.665 565.354 571.197 566.197 569.784C567.687 569.371 567.001 569.263 568.318 569.816C568.95 572.999 568.62 581.151 568.578 584.878C566.609 584.423 567.358 584.908 566.078 583.68C565.569 581.588 565.765 580.195 565.863 578.041L559.406 578.016C559.439 580.119 559.851 583.547 558.188 584.899C555.552 583.689 556.649 571.846 556.714 568.73Z"
     id="path8" />
  <path
     fill="#e2e2e2"
     d="m 769.822,578.008 c 0.006,-2.238 -0.28,-6.425 0.556,-8.265 l 1.186,-0.143 c 1.553,2.255 0.939,12.057 0.898,15.275 -2.908,-2.641 -6.629,-7.149 -9.312,-10.211 0.026,3.818 0.363,5.633 -0.728,9.338 l -0.464,0.035 c -1.683,-4.216 -1.197,-10.141 -1.051,-14.755 2.5,1.351 6.868,6.47 8.915,8.726 z"
     id="path9" />
  <path
     fill="#E2E2E2"
     d="M713.588 569.247C716.326 570.57 720.719 575.925 723.178 578.47C723.18 575.927 722.901 571.641 724.432 569.728C726.125 572.993 725.62 580.965 725.297 584.736C722.774 583.261 718.603 577.533 716.008 574.754C715.81 576.742 715.965 582.511 714.428 583.599C713.005 581.061 713.513 572.522 713.588 569.247Z"
     id="path10" />
  <path
     fill="#e2e2e2"
     d="m 749.761,568.887 c 1.249,1.619 5.422,12.28 6.44,14.851 l -1.203,0.411 c -2.505,-0.633 -1.468,-1.976 -5.09,-2.933 -2.886,0.429 -2.273,0.07 -3.72,2.276 -1.535,0.796 -0.82,0.81 -2.195,0.375 -0.475,-2.542 4.447,-11.944 5.768,-14.98 z"
     id="path11"
     sodipodi:nodetypes="ccccccc" />
  <path
     fill="#E2E2E2"
     d="M660.339 568.704C661.138 569.123 660.818 568.81 661.246 569.694C659.991 572.034 657.864 573.919 655.973 575.85C657.379 577.643 662.3 582.833 662.03 584.655C658.115 585.119 657.244 579.277 653.81 578.681C653.762 581.409 653.907 582.501 652.694 584.928C650.976 583.028 651.079 572.708 651.32 569.97L652.244 569.373L653.236 569.701C653.976 571.241 653.652 573.603 653.584 575.403C656.02 573.006 657.661 571.024 660.339 568.704Z"
     id="path12" />
  <path
     fill="#E2E2E2"
     d="M576.375 569.518C579.049 569.53 583.484 568.846 585.092 570.875C584.389 572.458 580.836 571.69 578.712 573.053C579.495 576.108 582.185 575.587 584.882 577.472C583.421 578.234 580.547 578.098 578.782 578.126L578.975 581.531C580.134 582.558 581.507 582.141 583.581 582.277L584.184 583.252L583.972 584.076C582.379 584.88 578.335 584.614 576.329 584.611L576.375 569.518Z"
     id="path13" />
  <path
     fill="#E2E2E2"
     d="M608.329 568.925C610.768 569.387 611.186 569.277 612.95 571.132C613.086 572.846 610.07 570.961 608.477 573.119C609.096 575.428 612.269 576.874 614.262 579.918C614.747 583.453 612.565 584.229 609.459 585.01C607.726 584.634 607.379 584.645 605.878 583.612C605.27 582.137 605.316 582.878 605.787 581.31L606.67 581.054L608.776 582.303C610.82 582.343 610.077 582.682 611.599 581.853C610.411 577.339 601.131 574.273 608.329 568.925Z"
     id="path14" />
  <path
     fill="#E2E2E2"
     d="M690.754 569.592C693.313 569.55 695.696 569.468 698.107 570.27C697.672 571.646 694.816 571.735 693.288 574.201L693.63 575.126C694.726 575.367 695.214 575.459 696.311 575.524L697.217 575.575L697.837 576.527L697.482 577.144L696.318 576.917C694.974 577.276 694.778 577.237 693.631 577.979C693.235 579.971 693.375 581.015 693.458 583.07C692.622 584.313 693.201 583.957 691.818 584.35L691.186 583.771C690.222 581.394 690.705 572.684 690.754 569.592Z"
     id="path15" />
  <path
     fill="#e2e2e2"
     d="m 591.593,569.14478 c 1.108,0.167 1.03,-0.42978 1.937,0.23622 0.715,3.476 0.333,8.884 0.247,12.574 3.497,-0.083 4.986,-0.978 6.385,2.397 -2.588,0.19 -5.966,0.157 -8.625,0.199 z"
     id="path16"
     sodipodi:nodetypes="cccccc" />
  <path
     fill="#e2e2e2"
     d="m 731.14221,569.58135 c 1.15615,0.0226 1.41519,0.0517 1.88885,-0.10082 0.715,3.476 0.333,8.884 0.247,12.574 3.497,-0.083 4.986,-0.978 6.385,2.397 -2.588,0.19 -5.966,0.157 -8.625,0.199 z"
     id="path16-6"
     sodipodi:nodetypes="cccccc" />
  <path
     fill="#E2E2E2"
     d="M667.923 568.549L669.922 569.082C671.341 571.109 670.609 581.626 670.523 584.893L668.759 584.424C667.225 582.29 667.88 572.024 667.923 568.549Z"
     id="path17" />
  <path
     fill="#E2E2E2"
     d="M620.666 568.618L622.399 569.226C623.854 571.819 623.087 581.848 622.918 585.232L621.061 584.426C619.784 581.794 620.519 571.97 620.666 568.618Z"
     id="path18" />
  <path
     fill="#E2E2E2"
     d="M704.792 569.107L706.179 569.602C707.682 571.711 706.917 581.423 706.802 584.505L705.239 584.097C703.678 581.907 704.483 572.039 704.792 569.107Z"
     id="path20" />
  <path
     fill="#E2E2E2"
     d="M678.022 580.263C679.946 581.952 677.64 586.793 675.496 588.095L674.863 587.056C675.759 584.382 676.714 582.722 678.022 580.263Z"
     id="path21" />
  <path
     d="M785.522 360.712C836.74 356.714 891.085 381.073 919.376 424.47L860.943 424.293C848.54 410.923 834.347 401.769 817.802 394.45C809.526 390.961 800.927 388.297 792.129 386.495C760.913 380.132 726.436 385.717 697.441 398.751C690.796 401.738 683.516 406.55 677.378 410.595C707.435 378.367 741.972 363.661 785.522 360.712Z"
     id="path22" />
  <path
     d="M837.491 612.574C861.076 612.302 884.908 612.699 908.547 612.561C862.469 661.784 800.955 678.052 737.377 654.736C714.723 646.106 697.749 632.213 680.81 615.476C706.041 626.955 737.026 639.406 764.81 641.909C795.196 644.647 815.567 630.626 837.491 612.574Z"
     id="path23" />
  <path
     d="M320.399 446.111C333.897 444.412 346.224 453.956 347.96 467.449C349.696 480.942 340.186 493.296 326.698 495.069C313.157 496.849 300.744 487.294 299.002 473.748C297.259 460.202 306.848 447.816 320.399 446.111Z"
     id="path24" />
  <path
     fill="#E2E2E2"
     d="M319.764 453.104C328.604 452.369 335.969 454.983 338.73 463.97C342.241 475.394 338.214 484.58 327.134 488.202C310.507 489.852 303.022 476.756 308.909 461.436C310.649 456.908 315.301 454.482 319.764 453.104Z"
     id="path25" />
  <path
     d="M784.333 446.599C797.882 445.466 809.77 455.563 810.846 469.116C811.921 482.67 801.774 494.515 788.216 495.533C774.739 496.545 762.98 486.472 761.911 473C760.842 459.527 770.865 447.725 784.333 446.599Z"
     id="path26" />
  <path
     fill="#E2E2E2"
     d="M785.559 453.663C805.414 453.743 809.395 481.786 788.51 488.59C765.15 488.438 764.194 456.685 785.559 453.663Z"
     id="path27" />
  <path
     d="M530.625 446.596C541.088 446.49 554.304 445.235 562.68 452.488C573.458 461.82 571.719 478.525 563.234 488.585C553.493 496.489 542.609 495.08 530.575 495.062L530.625 446.596Z"
     id="path28" />
  <path
     fill="#E2E2E2"
     d="M538.144 453.495C544.54 453.497 550.34 453.217 555.789 457.184C565.143 463.995 564.061 475.01 557.583 483.32C551.394 488.469 546.01 488.095 538.346 488.163L538.144 453.495Z"
     id="path29" />
  <path
     d="M254.344 446.54C263.692 446.501 277.442 445.048 284.738 451.775C295.216 461.436 294.662 477.997 285.538 488.336C276.67 496.415 265.572 494.854 254.096 494.802C254.53 478.912 254.355 462.477 254.344 446.54Z"
     id="path30" />
  <path
     fill="#E2E2E2"
     d="M262.031 453.376C267.514 453.386 272.939 453.161 277.719 456.325C286.986 462.458 286.02 474.835 280.304 483C274.43 488.126 269.561 487.678 262.178 487.647L262.031 453.376Z"
     id="path31" />
  <path
     d="M400.677 446.548C410.917 446.39 427.237 444.168 427.968 458.713C428.185 463.017 425.726 465.628 423.027 468.536C432.048 472.133 433.142 480.134 429.729 488.429C423.089 496.94 410.485 494.97 400.618 494.937L400.677 446.548Z"
     id="path32" />
  <path
     fill="#E2E2E2"
     d="M408.041 472.645C412.546 472.558 417.216 472.223 421.183 474.8C425.533 477.627 424.002 482.721 421.39 486.205C417.015 488.738 413.048 488.231 408.035 488.225C407.995 483.031 407.997 477.838 408.041 472.645Z"
     id="path33" />
  <path
     fill="#E2E2E2"
     d="M408.067 453.468C415.172 453.422 425.412 454.973 418.357 464.448C414.575 466.25 412.204 466.202 408.092 466.456L408.067 453.468Z"
     id="path34" />
  <path
     d="M863.612 446.685C873.272 446.536 889.139 444.651 892.169 456.595C894.392 465.359 890.075 471.685 881.652 473.757C886.702 480.896 891.659 488.101 896.521 495.369C894.134 495.319 888.926 495.431 886.974 494.711C884.05 490.285 875.75 476.879 871.772 474.446L871.193 474.865C870.613 478.882 870.915 490.479 870.938 495.08L863.526 495.093L863.612 446.685Z"
     id="path35" />
  <path
     fill="#E2E2E2"
     d="M870.936 453.876C878.182 453.705 890.773 455.594 882.881 465.676C878.669 468.266 875.806 467.973 870.983 467.996L870.936 453.876Z"
     id="path36" />
  <path
     d="M660.137 445.601C671.918 444.796 677.691 447.218 685.298 456.163L678.98 460.551C669.74 449.375 653.892 450.646 648.282 463.696C641.183 480.21 657.441 493.614 673.36 486.246C676.049 484.389 677.159 483.046 679.388 480.66L685.675 484.894C681.71 490.027 677.35 493.637 670.978 495.421C664.361 497.235 657.289 496.258 651.413 492.716C645.371 489.096 641.053 483.183 639.444 476.326C635.805 461.025 645.172 448.747 660.137 445.601Z"
     id="path37" />
  <path
     d="M474.477 517.589C483.197 515.807 491.738 521.339 493.678 530.025C495.618 538.712 490.241 547.352 481.591 549.449C475.854 550.839 469.814 549.024 465.793 544.703C461.773 540.381 460.398 534.226 462.198 528.604C463.999 522.983 468.693 518.771 474.477 517.589Z"
     id="path38" />
  <path
     fill="#E2E2E2"
     d="M476.98 521.492C483.6 521.01 489.359 525.983 489.846 532.603C490.333 539.223 485.364 544.985 478.745 545.477C472.118 545.971 466.347 540.995 465.86 534.368C465.372 527.74 470.352 521.974 476.98 521.492Z"
     id="path39" />
  <path
     d="M732.32 445.605C743.514 444.212 751.209 447.659 757.208 457.205C755.063 458.518 752.638 459.688 750.388 460.84C737.658 441.53 713.065 461.103 723.019 480.241C727.767 489.372 736.762 490.641 745.263 486.091C747.968 484.086 748.517 483.161 750.369 480.44L757.644 483.869C751.008 494.575 737.995 498.921 726.315 493.836C713.303 488.172 709.632 470.747 715.622 458.77C719.334 451.349 724.717 448.04 732.32 445.605Z"
     id="path40" />
  <path
     d="M663.494 517.663C672.188 515.702 680.839 521.112 682.881 529.788C684.923 538.463 679.594 547.164 670.938 549.288C662.167 551.439 653.325 546.023 651.255 537.233C649.186 528.442 654.684 519.65 663.494 517.663Z"
     id="path41" />
  <path
     fill="#E2E2E2"
     d="M663.865 521.718C668.065 520.563 672.561 521.771 675.617 524.875C678.673 527.98 679.809 532.495 678.588 536.676C677.366 540.857 673.977 544.05 669.731 545.021C663.36 546.478 656.993 542.577 655.397 536.239C653.802 529.902 657.563 523.451 663.865 521.718Z"
     id="path42" />
  <path
     d="M818.875 446.435L826.436 446.337C826.369 457.52 825.89 469.339 826.719 480.427C827.577 491.887 842.984 491.259 843.448 479.795C843.896 468.768 843.606 457.552 843.627 446.494L851.264 446.465L851.295 453.984C851.223 464.38 853.464 483.974 845.916 491.812C838.307 499.713 820.712 496.092 819.365 483.632C818.063 471.603 818.78 458.679 818.875 446.435Z"
     id="path43" />
  <path
     d="M380.926 446.5L388.522 446.486L388.516 452.955C388.584 463.551 390.796 483.49 383.735 491.328C376.306 499.575 358.693 495.588 357.451 483.234C356.257 471.361 356.863 458.616 356.935 446.548L364.503 446.577C364.457 457.92 363.979 469.341 364.904 480.625C365.852 492.185 379.731 489.825 380.444 482.056C381.48 470.769 380.894 457.949 380.926 446.5Z"
     id="path44" />
  <path
     d="M471.961 446.498C481.228 446.401 490.629 446.5 499.907 446.515L499.86 453.511L479.479 453.521L479.498 465.571L498.995 465.61L499.016 472.036C495.005 472.097 481.971 471.01 479.527 473.017L479.387 474.875L479.442 487.894L500.66 487.863L500.617 494.806C491.183 494.928 481.598 494.86 472.152 494.88L471.961 446.498Z"
     id="path45" />
  <path
     d="M610.24 445.569C619.959 444.984 623.736 446.434 629.234 454.579C627.188 455.77 625.159 456.989 623.146 458.236C623.068 458.125 622.991 458.015 622.913 457.904L622.511 457.359C618.465 451.779 607.12 449.197 607.608 457.995C609.105 464.401 617.823 466.367 622.958 469.289C631.402 474.093 632.866 481.162 628.474 489.604C626.533 493.334 621.503 495.098 617.372 496.002C607.67 496.445 602.596 492.806 598.117 484.486C600.624 483.472 602.397 482.935 604.954 482.188C608.269 486.777 611.765 490.69 618.323 488.688C619.781 488.243 621.707 486.215 622.08 484.724C625.319 471.874 603.478 472.946 600.229 462.503C597.574 453.974 602.549 448.324 610.24 445.569Z"
     id="path46" />
  <path
     d="M849.73 516.639C863.854 516.267 866.085 533.431 860.986 543.464C858.94 547.49 856.074 548.889 851.884 550.065C833.948 550.545 833.218 520.944 849.73 516.639Z"
     id="path47" />
  <path
     fill="#E2E2E2"
     d="M850.577 521.043C853.678 521.44 856.147 522.87 857.025 525.926C859.112 533.19 858.932 542.117 851.256 545.383C847.293 544.822 845.238 543.13 844.229 539.22C842.496 532.506 843.003 523.44 850.577 521.043Z"
     id="path48" />
  <path
     d="M899.491 446.498L926.719 446.501L926.665 453.83L916.552 453.828L916.579 484.75L916.529 495.065L908.906 495.067C908.715 481.384 908.897 467.337 908.924 453.628L899.485 453.605L899.491 446.498Z"
     id="path49" />
  <path
     d="M441.848 446.516L449.019 446.52L449.027 487.664L464.182 487.714L464.283 494.845C458.176 494.933 447.765 495.195 441.908 494.727L441.848 446.516Z"
     id="path50" />
  <path
     d="M918.776 517.511C921.028 517.995 921.797 517.822 924.148 517.654C921.499 520.853 918.541 525.325 916.106 528.798C928.004 530.961 931.62 541.52 921.853 548.794C916.412 550.615 907.44 549.465 906.203 542.866C904.728 535 914.335 524.774 918.441 518.067L918.776 517.511Z"
     id="path51" />
  <path
     fill="#E2E2E2"
     d="M914.605 533.966C917.683 532.799 921.125 534.339 922.307 537.411C923.489 540.483 921.966 543.933 918.899 545.13C915.812 546.335 912.333 544.799 911.143 541.706C909.953 538.612 911.506 535.141 914.605 533.966Z"
     id="path52" />
  <path
     d="M433.839 518.052C438.902 517.958 456.135 517.801 450.909 529.818C449.779 532.417 445.645 533.361 442.88 533.714C445.546 538.48 449.545 543.831 452.744 548.366L452.478 548.811C450.724 548.973 449.685 549.226 448.018 548.648C444.466 543.718 441.121 538.641 437.992 533.432C438 538.036 438.159 543.693 437.849 548.209L437.003 548.918C434.749 549.195 435.719 549.42 433.906 548.647C433.15 542.907 433.751 524.583 433.839 518.052Z"
     id="path53" />
  <path
     fill="#E2E2E2"
     d="M438.129 522.073C443.131 522.189 449.055 522.365 445.595 529.324C442.409 529.994 441.246 529.845 438.081 529.68L438.129 522.073Z"
     id="path54" />
  <path
     d="M580.177 446.552L588.5 446.559C587.779 451.817 587.997 459.915 587.994 465.474L588.009 494.977L580.089 494.975L580.177 446.552Z"
     id="path55" />
  <path
     d="M598.004 517.188C599.252 517.807 618.789 537.966 620.599 540.07C620.603 534.978 620.476 529.917 620.414 524.829C620.374 521.58 619.67 518.785 623.283 517.561L624.204 518.021C625.65 521.664 624.938 544.743 624.891 550.063C617.9 544.013 610.442 533.624 602.459 527.51C602.417 532.629 602.504 537.71 602.553 542.827C602.583 545.953 603.237 548.717 599.767 549.883L598.698 549.337C597.389 545.85 597.976 522.358 598.004 517.188Z"
     id="path56" />
  <path
     d="M752.493 516.98C759.46 524.451 766.98 531.403 773.8 539.02C773.854 535.382 773.282 519.728 773.999 518.071C775.904 517.8 775.896 517.867 777.7 518.21C778.116 520.227 778.486 548.274 777.717 549.62C771.502 542.017 763.547 534.157 756.458 527.304C756.294 532.126 757.725 547.528 754.284 550.146C752.713 549.676 753.317 550.114 752.365 548.856C751.853 544.597 751.843 520.987 752.493 516.98Z"
     id="path57" />
  <path
     d="M574.162 517.327C575.577 518.719 587.193 544.619 588.637 548.18L588.302 548.896C586.843 549.103 586.57 549.263 585.152 548.839C583.26 547.124 582.141 544.064 581.008 541.645L574.75 541.606L567.436 541.569C566.712 543.233 564.83 548.062 563.732 549.05C561.805 549.239 561.695 549.354 559.768 548.841C560.509 545.443 572.246 521.199 574.162 517.327Z"
     id="path58" />
  <path
     fill="#E2E2E2"
     d="M574.049 527.262C575.616 528.849 579.178 535.277 578.615 537.607L576.513 537.615L569.309 537.555C570.678 534.263 572.522 530.535 574.049 527.262Z"
     id="path59" />
  <path
     d="M505.137 517.914C513.069 517.827 524.729 516.283 523.398 528.249C522.498 536.339 512.96 532.623 509.512 535.069C509.549 538.141 509.89 546.274 508.982 548.964C507.412 549.242 507.176 549.065 505.638 548.703C504.36 546.598 505.095 522.143 505.137 517.914Z"
     id="path60" />
  <path
     fill="#E2E2E2"
     d="M509.711 521.692C515.204 521.337 521.627 522.577 517.524 529.646C514.785 530.535 512.436 531.224 510.219 529.286C509.236 527.01 509.622 524.27 509.711 521.692Z"
     id="path61" />
  <path
     d="M694.416 517.724C699.802 517.557 705.419 516.903 710.043 520.388C713.594 523.065 714.827 527.66 711.348 531.051C707.446 534.853 703.602 534.656 698.521 534.738C698.42 539.042 699.541 544.961 697.669 548.293C696.057 549.138 696.887 548.994 695.092 548.753C693.767 545.7 694.383 522.537 694.416 517.724Z"
     id="path62" />
  <path
     fill="#E2E2E2"
     d="M698.573 521.284C704.396 521.23 710.91 521.729 707.215 529.439C704.206 530.886 701.822 530.812 698.578 530.912L698.573 521.284Z"
     id="path63" />
  <path
     d="M882.679 516.544C892.065 516.243 897.86 520.786 893.908 530.637C892.097 535.153 887.296 540.231 884.096 544.058C887.535 544.277 894.336 542.765 895.412 546.414C895.206 547.052 894.841 548.426 894.305 548.6C890.74 549.762 878.562 549.2 874.875 549.189C874.384 549.197 874.046 549.002 873.533 548.822C875.859 543.429 897.958 528.788 886.989 520.975C882.944 518.094 879.92 526.447 876.01 527.406C874.446 526.779 875.033 527.302 874.271 525.694C874.355 520.423 878.259 518.222 882.679 516.544Z"
     id="path64" />
  <path
     d="M811.606 516.606C817.615 516.012 825.384 517.394 825.478 524.769C825.584 533.082 819.29 538.858 814.127 544.534C818.04 544.613 824.127 543.014 826.274 546.393C826.263 548.495 826.678 547.797 825.639 549.002C823.013 549.535 808.88 549.458 804.874 549.606L804.112 549.652L803.754 549.081C807.629 543.355 823.723 532.8 819.893 524.088C819.329 522.786 818.265 521.767 816.94 521.259C812.042 519.393 808.778 523.034 807.277 527.259L802.629 524.303C805.461 519.955 806.939 518.656 811.606 516.606Z"
     id="path65" />
  <path
     d="M722.974 517.696C727.816 517.659 735.572 517.238 739.969 517.862L740.494 518.687C739.618 523.144 731.512 521.491 727.482 521.455L727.469 529.579C730.155 529.629 737.977 529.193 739.942 529.974C741.211 531.475 740.873 530.639 741.051 532.545C738.244 535.539 731.169 531.879 727.61 534.256L727.499 535.875L727.507 545.214C731.5 545.3 738.03 543.976 740.816 546.75C741.014 548.584 741.29 547.856 740.449 549.148C736.451 549.874 727.5 549.505 722.977 549.456C722.897 538.869 722.896 528.282 722.974 517.696Z"
     id="path66" />
  <path
     d="M533.863 517.857C537.409 517.781 549.121 517.229 551.897 518.308C552.228 519.886 552.233 519.094 551.696 520.758C549.259 522.866 541.972 521.955 538.306 521.908L538.197 529.922C541.888 529.96 549.622 529.091 551.708 531.066L551.679 532.495C549.584 536.078 543.032 532.364 538.267 534.279L537.965 535.375L537.996 545.423C541.281 545.378 549.222 544.968 551.733 546.144C551.904 548.311 552.19 547.48 551.439 549.108C547.519 549.788 538.208 549.432 533.763 549.381C533.605 539.138 533.823 528.151 533.863 517.857Z"
     id="path67" />
  <path
     d="M400.502 517.927C401.841 517.92 402.876 518 404.196 518.104C408.075 522.787 398.347 550.938 414.269 544.57C420.311 542.153 415.307 525.168 418.066 518.668C419.517 517.597 418.689 517.894 420.724 518.038C421.835 519.086 421.471 518.825 421.557 520.875C421.542 528.103 423.285 541.113 418.49 546.681C415.327 550.352 407.282 550.717 403.999 547.121C398.641 541.251 400.401 525.628 400.502 517.927Z"
     id="path68" />
  <path
     d="M372.152 518.063C376.869 518.017 384.68 517.64 388.994 518.343L389.52 519.165C389.386 520.068 389.506 520.594 388.952 521.098C387.094 522.786 379.334 522.058 376.651 522.014L376.708 529.287C379.339 529.33 386.864 528.993 388.793 529.784C389.363 530.93 389.142 531.148 388.926 532.473C384.922 536.414 377.097 529.473 376.556 536.375L376.592 545.305C380.097 545.255 385.145 544.811 388.299 545.827C389.621 547.147 389.183 546.332 389.275 548.541C387.265 549.91 375.254 549.3 372.131 549.25C371.935 539.003 372.117 528.34 372.152 518.063Z"
     id="path69" />
</svg>
